<?xml version="1.0" standalone="no"?>
<!DOCTYPE svg PUBLIC "-//W3C//DTD SVG 20010904//EN"
 "http://www.w3.org/TR/2001/REC-SVG-20010904/DTD/svg10.dtd">
<svg version="1.0" xmlns="http://www.w3.org/2000/svg"
 width="954.000000pt" height="954.000000pt" viewBox="0 0 954.000000 954.000000"
 preserveAspectRatio="xMidYMid meet">

<g transform="translate(0.000000,954.000000) scale(0.100000,-0.100000)"
fill="#000000" stroke="none">
<path d="M0 4770 l0 -4770 4770 0 4770 0 0 4770 0 4770 -4770 0 -4770 0 0
-4770z m5155 2986 c537 -67 1010 -177 1365 -319 l105 -42 -3 -925 c-5 -1263 4
-1433 82 -1550 14 -22 26 -41 26 -44 0 -10 -71 13 -135 44 -97 46 -190 140
-237 240 -69 146 -68 125 -68 1090 0 682 -3 870 -12 877 -28 21 -388 123 -563
159 -378 78 -531 95 -855 95 -312 0 -599 -23 -885 -72 -33 -5 -103 -16 -155
-24 -52 -8 -115 -19 -140 -25 -25 -6 -105 -22 -179 -36 -74 -14 -138 -27 -143
-30 -4 -3 -8 -291 -8 -641 0 -698 -3 -661 62 -734 36 -40 130 -92 156 -87 16
3 17 48 22 518 l5 515 99 33 c221 74 483 132 741 162 295 36 713 17 899 -39
237 -72 349 -114 479 -179 81 -41 152 -83 158 -93 6 -12 8 -558 6 -1556 -2
-1433 -4 -1542 -20 -1598 -81 -276 -201 -426 -399 -500 -72 -27 -80 -19 -58
54 30 94 69 294 80 410 7 65 10 303 8 610 l-3 505 -70 27 c-38 16 -227 85
-420 155 -192 70 -404 147 -470 171 -66 25 -131 48 -145 53 -14 4 -131 47
-260 95 -129 48 -307 113 -395 145 -88 32 -196 71 -240 88 -44 17 -132 49
-195 72 -123 44 -177 72 -226 117 -69 63 -129 163 -158 264 -45 153 -46 188
-46 959 -1 661 1 736 15 746 29 22 434 148 570 179 327 74 494 102 730 124
147 14 735 5 880 -13z m-2150 -2514 c107 -54 207 -148 248 -232 62 -129 61
-114 63 -815 1 -572 3 -646 19 -698 25 -85 52 -143 101 -218 55 -84 123 -142
244 -209 556 -308 961 -594 1057 -746 15 -24 30 -44 33 -44 3 1 16 16 30 34
77 101 271 232 605 408 261 137 520 323 695 499 145 146 175 253 175 619 0
205 -2 232 -23 305 -29 100 -55 146 -104 185 l-38 31 0 205 c0 174 2 206 15
210 9 4 43 -4 78 -16 225 -82 353 -206 404 -391 16 -57 18 -112 16 -529 -2
-461 -2 -466 -27 -562 -53 -206 -168 -363 -381 -517 -88 -64 -160 -106 -340
-201 -229 -120 -431 -244 -650 -397 -92 -64 -196 -153 -290 -247 -88 -88 -123
-131 -171 -212 -10 -17 -16 -10 -49 56 -150 301 -495 577 -935 749 -250 98
-367 169 -488 296 -186 193 -296 438 -345 766 -13 91 -14 377 -2 699 7 186 1
357 -26 705 -9 111 -24 195 -55 303 -6 21 -4 22 22 16 16 -4 69 -28 119 -52z
m781 -135 c88 -40 165 -76 172 -80 9 -6 12 -175 12 -786 0 -635 3 -798 15
-892 18 -133 37 -207 71 -268 13 -24 24 -46 24 -48 0 -13 -60 13 -119 51 -196
128 -310 319 -351 586 -5 30 -9 382 -9 783 -1 608 1 727 13 727 7 0 85 -33
172 -73z"/>
<path d="M4480 6520 c-166 -25 -434 -95 -467 -122 -10 -8 -13 -102 -13 -408 0
-306 3 -400 13 -408 12 -10 160 -68 617 -242 140 -53 408 -156 596 -228 188
-73 346 -132 353 -132 8 0 11 180 11 693 l0 693 -37 18 c-113 54 -299 107
-475 136 -159 26 -430 26 -598 0z"/>
</g>
</svg>
